<svg width="210" height="252" viewBox="0 0 210 252" fill="none" xmlns="http://www.w3.org/2000/svg">
<path d="M138.46 187.552C136.96 179.343 138.958 170.872 143.686 164.013C152.205 151.654 171.536 129.277 187.559 152.245C208.79 182.677 178.746 215.327 154.911 206.661C143.987 202.688 139.796 194.864 138.46 187.552Z" fill="#85C9D4"/>
<path d="M148.102 177.74C144.682 173.978 142.047 171.824 140.052 170.925C138.046 176.189 137.432 181.933 138.459 187.553C139.795 194.864 143.987 202.689 154.911 206.661C171.589 212.725 191.302 198.559 194.366 179.079C187.392 186.444 169.095 200.835 148.102 177.74Z" fill="#4598B5"/>
<path d="M138.46 187.552C136.96 179.343 138.958 170.872 143.686 164.013C152.205 151.654 171.536 129.277 187.559 152.245C208.79 182.677 178.746 215.327 154.911 206.661C143.987 202.688 139.796 194.864 138.46 187.552Z" stroke="#241200" stroke-width="2" stroke-miterlimit="10"/>
<path d="M177.443 171.802C171.535 157.793 140.541 187.641 177.118 203.965" stroke="#241200" stroke-width="2" stroke-linecap="round" stroke-linejoin="round"/>
<path d="M165.527 149.742C165.527 186.443 129.475 216.197 95.6267 216.197C58.9742 216.197 25.7261 186.443 25.7261 149.742C25.7261 113.04 29.732 83.2872 95.6267 83.2872C151.507 83.2872 165.527 113.04 165.527 149.742Z" fill="#F6E572"/>
<path d="M165.527 149.742C165.527 113.04 151.507 83.2872 95.6268 83.2872C94.4737 83.2872 93.3447 83.2984 92.2301 83.3162C180.849 108.161 156.618 240.13 33.1702 178.953C44.9981 201.01 69.4418 216.197 95.6268 216.197C129.475 216.197 165.527 186.443 165.527 149.742Z" fill="#EFCC54"/>
<path d="M165.527 149.742C165.527 186.443 129.475 216.197 95.6267 216.197C58.9742 216.197 25.7261 186.443 25.7261 149.742C25.7261 113.04 29.732 83.2872 95.6267 83.2872C151.507 83.2872 165.527 113.04 165.527 149.742Z" stroke="#241200" stroke-width="1.91943" stroke-miterlimit="10"/>
<path d="M29.0806 116.54C54.6665 128.71 100.127 140.726 160.8 118.417" stroke="#241200" stroke-width="1.91943" stroke-miterlimit="10"/>
<path d="M27.1719 125.489L51.5633 157.724L31.1129 174.553" stroke="#241200" stroke-width="1.91943" stroke-miterlimit="10"/>
<path d="M161.74 121.455L129.276 158.095L149.954 189.982" stroke="#241200" stroke-width="1.91943" stroke-miterlimit="10"/>
<path d="M51.5632 157.724C51.5632 157.724 84.8107 166.448 129.274 158.095" stroke="#241200" stroke-width="1.91943" stroke-miterlimit="10"/>
<path d="M90.219 185.382C85.9126 180.556 86.6385 134.74 90.8445 130.726" stroke="#241200" stroke-width="1.91943" stroke-miterlimit="10"/>
<path d="M60.8362 206.961L90.2688 185.104L124.012 209.646" stroke="#241200" stroke-width="1.91943" stroke-miterlimit="10"/>
<path d="M133.935 86.0626C133.935 86.0626 146.723 145.868 194.037 147.286L192.541 139.476L204.264 135.36L199.772 130.636L205.54 124.828C205.54 124.828 196.79 124.417 195.42 122.055C194.049 119.692 162.471 80.2439 133.935 86.0626Z" fill="#85C9D4"/>
<path d="M133.935 86.0626C133.935 86.0626 146.723 145.868 194.037 147.286L192.541 139.476L204.264 135.36L199.772 130.636L205.54 124.828C205.54 124.828 196.79 124.417 195.42 122.055C194.049 119.692 162.471 80.2439 133.935 86.0626Z" stroke="#241200" stroke-width="2" stroke-linecap="round" stroke-linejoin="round"/>
<path d="M144.296 66.2411C144.296 37.6354 120.533 14.4453 91.2195 14.4453C61.9064 14.4453 38.1436 37.6354 38.1436 66.2411C38.1436 94.8473 56.4698 118.037 91.2195 118.037C120.533 118.037 144.296 96.3709 144.296 66.2411Z" fill="#85C9D4"/>
<path d="M144.296 66.2411C144.296 37.6354 120.533 14.4453 91.2195 14.4453C61.9064 14.4453 38.1436 37.6354 38.1436 66.2411C38.1436 94.8473 56.4698 118.037 91.2195 118.037C120.533 118.037 144.296 96.3709 144.296 66.2411Z" stroke="#241200" stroke-width="2" stroke-miterlimit="10"/>
<path d="M127.906 74.7733C124.784 75.4934 118.913 76.459 114.483 74.8815C113.039 74.367 112.037 73.0404 111.944 71.5011C111.402 62.482 108.652 42.4583 121.664 42.2068C132.129 42.3078 130.453 64.7965 130.182 72.0102C130.131 73.3446 129.199 74.4746 127.906 74.7733Z" fill="#902817"/>
<path d="M130.175 56.5447C129.522 49.1653 127.451 42.2624 121.664 42.2068C110.983 42.4136 110.923 55.9407 111.545 65.7699C113.261 66.6527 115.159 67.1472 117.158 67.1472C123.16 67.1472 128.267 62.7239 130.175 56.5447Z" fill="#241200"/>
<path d="M111.446 56.31C112.783 57.9122 114.513 58.8844 116.407 58.8844C120.638 58.8844 124.067 54.0566 124.067 48.1017C124.067 45.9807 123.626 44.0084 122.875 42.3409C122.488 42.2653 122.089 42.2109 121.664 42.2067C114.213 42.3512 111.934 48.979 111.446 56.31Z" fill="white"/>
<path d="M127.906 74.7733C124.784 75.4934 118.913 76.459 114.483 74.8815C113.039 74.367 112.037 73.0404 111.944 71.5011C111.402 62.482 108.652 42.4583 121.664 42.2068C132.129 42.3078 130.453 64.7965 130.182 72.0102C130.131 73.3446 129.199 74.4746 127.906 74.7733Z" stroke="#241200" stroke-width="2" stroke-miterlimit="10"/>
<path d="M69.0211 75.1767C65.899 75.8974 60.028 76.8624 55.5979 75.285C54.1534 74.7704 53.1518 73.4439 53.0598 71.9046C52.5172 62.8855 49.7677 42.8624 62.7794 42.6102C73.244 42.7112 71.5682 65.2006 71.2966 72.4148C71.2467 73.7486 70.3142 74.8787 69.0211 75.1767Z" fill="#902817"/>
<path d="M71.5245 61.0682C71.2835 52.3684 69.642 42.677 62.7801 42.6111C54.0226 42.7804 52.4074 51.9046 52.4513 60.6039C55.166 62.5544 58.5963 63.7219 62.3295 63.7219C65.7556 63.7219 68.9269 62.7376 71.5245 61.0682Z" fill="#241200"/>
<path d="M62.7794 42.611C61.0128 42.6448 59.5449 43.0541 58.3143 43.7404C57.3337 45.0216 56.6241 46.7296 56.376 48.6602C55.8046 53.098 57.8841 57.0274 61.02 57.4362C64.1565 57.8449 67.162 54.5781 67.7335 50.1403C68.0333 47.8125 67.5989 45.6304 66.6699 44.0173C65.6082 43.1418 64.3302 42.6255 62.7794 42.611Z" fill="white"/>
<path d="M69.0211 75.1767C65.899 75.8974 60.028 76.8624 55.5979 75.285C54.1534 74.7704 53.1518 73.4439 53.0598 71.9046C52.5172 62.8855 49.7677 42.8624 62.7794 42.6102C73.244 42.7112 71.5682 65.2006 71.2966 72.4148C71.2467 73.7486 70.3142 74.8787 69.0211 75.1767Z" stroke="#241200" stroke-width="2" stroke-miterlimit="10"/>
<path d="M113.853 215.149C113.853 215.149 118.177 187.976 145.923 185.052C148.741 184.756 151.417 186.343 152.434 188.889C156.187 198.279 163.548 221.534 150.505 234.082C150.08 234.491 156.514 242.609 156.514 242.609L156.203 244.627C156.04 245.688 155.051 246.447 153.94 246.363L144.346 245.644L146.541 248.917C146.884 249.428 146.489 250.097 145.858 250.069C139.628 249.794 115.869 248.254 112.351 240.73C112.351 240.73 109.496 236.105 115.956 230.469C120.012 226.278 113.853 215.149 113.853 215.149Z" fill="#85C9D4"/>
<path d="M113.853 215.149C113.853 215.149 115.362 217.877 116.394 221.14C120.817 205.79 142.093 185.811 142.093 185.811L141.857 185.686C117.75 190.683 113.853 215.149 113.853 215.149Z" fill="#4598B5"/>
<path d="M113.853 215.149C113.853 215.149 118.177 187.976 145.923 185.052C148.741 184.756 151.417 186.343 152.434 188.889C156.187 198.279 163.548 221.534 150.505 234.082C150.08 234.491 156.514 242.609 156.514 242.609L156.203 244.627C156.04 245.688 155.051 246.447 153.94 246.363L144.346 245.644L146.541 248.917C146.884 249.428 146.489 250.097 145.858 250.069C139.628 249.794 115.869 248.254 112.351 240.73C112.351 240.73 109.496 236.105 115.956 230.469C120.012 226.278 113.853 215.149 113.853 215.149Z" stroke="#241200" stroke-width="1.95565" stroke-linecap="round" stroke-linejoin="round"/>
<path d="M35.0267 177.948C42.4768 181.073 62.1057 191.087 70.6704 212.632C70.8008 212.96 70.7227 213.33 70.4715 213.583C68.8756 215.194 63.4102 222.027 66.1195 237.976C66.1862 238.37 65.9861 238.761 65.6142 238.938C63.0942 240.136 53.2166 244.373 42.0105 243.078C41.5232 243.021 41.1663 242.604 41.1897 242.132L41.2456 241.003C41.2732 240.443 40.7709 239.993 40.1923 240.06L31.4401 241.07C30.7714 241.148 30.2366 240.544 30.4217 239.922L30.5905 239.354C30.7624 238.775 30.3105 238.198 29.6844 238.198H26.5281C25.7187 238.198 25.2849 237.284 25.8167 236.696C27.1692 235.203 29.6496 233.014 33.143 232.142C33.837 231.969 34.0905 231.149 33.5972 230.649C28.5428 225.528 10.699 204.475 30.1513 179.204C31.2743 177.745 33.2974 177.223 35.0267 177.948Z" fill="#85C9D4"/>
<path d="M35.0267 177.947C34.0984 177.558 33.0884 177.539 32.175 177.821C37.2511 180.958 59.6813 199.807 67.1855 219.024C68.1709 217.033 69.9158 214.143 70.4716 213.583C70.7228 213.329 70.8009 212.959 70.6705 212.631C62.1058 191.086 42.4768 181.072 35.0267 177.947Z" fill="#4598B5"/>
<path d="M35.0267 177.948C42.4768 181.073 62.1057 191.087 70.6704 212.632C70.8008 212.96 70.7227 213.33 70.4715 213.583C68.8756 215.194 63.4102 222.027 66.1195 237.976C66.1862 238.37 65.9861 238.761 65.6142 238.938C63.0942 240.136 53.2166 244.373 42.0105 243.078C41.5232 243.021 41.1663 242.605 41.1897 242.132L41.2456 241.003C41.2732 240.443 40.7709 239.993 40.1923 240.06L31.4401 241.07C30.7714 241.148 30.2366 240.544 30.4217 239.922L30.5905 239.354C30.7624 238.775 30.3105 238.198 29.6844 238.198H26.5281C25.7187 238.198 25.2849 237.284 25.8167 236.696C27.1692 235.203 29.6496 233.014 33.143 232.142C33.837 231.969 34.0905 231.149 33.5972 230.649C28.5428 225.528 10.699 204.475 30.1513 179.204C31.2743 177.745 33.2974 177.223 35.0267 177.948Z" stroke="#241200" stroke-width="1.95565" stroke-linecap="round" stroke-linejoin="round"/>
<path d="M64.0562 35.6825C64.0562 35.6825 69.1641 35.9848 71.9431 41.4264" stroke="#241200" stroke-width="2" stroke-miterlimit="10" stroke-linecap="round"/>
<path d="M109.196 44.9791C109.196 44.9791 111.299 39.159 117.608 36.8917" stroke="#241200" stroke-width="2" stroke-miterlimit="10" stroke-linecap="round"/>
<path d="M93.7419 84.8294C93.7419 84.8294 94.9257 84.0537 95.333 82.342" stroke="#241200" stroke-width="2" stroke-miterlimit="10" stroke-linecap="round"/>
<path d="M85.0618 82.1987C85.0876 82.1739 85.3418 82.9508 86.8391 84.5706" stroke="#241200" stroke-width="2" stroke-miterlimit="10" stroke-linecap="round"/>
<path d="M53.9666 88.0065C53.9666 88.0065 65.1077 106.573 90.4941 106.573C115.881 106.573 128.974 89.2158 128.974 89.2158C128.974 89.2158 104.167 86.9817 92.9985 91.1421C91.673 91.6354 90.2154 91.5901 88.8983 91.0731C75.0911 85.6497 64.9581 87.8632 53.9666 88.0065Z" fill="#241200"/>
<path d="M53.9666 88.0065C53.9666 88.0065 65.1077 106.573 90.4941 106.573C115.881 106.573 128.974 89.2158 128.974 89.2158C128.974 89.2158 104.167 86.9817 92.9985 91.1421C91.673 91.6354 90.2154 91.5901 88.8983 91.0731C75.0911 85.6497 64.9581 87.8632 53.9666 88.0065Z" stroke="#241200" stroke-width="2" stroke-linejoin="round"/>
<path d="M92.9992 91.1413C91.6737 91.6347 90.2154 91.5899 88.8989 91.0724C79.3446 87.3195 71.5502 87.224 64.0124 87.5686C59.435 89.611 59.676 93.1196 60.4721 95.4208C66.2704 100.594 76.0849 106.574 90.4942 106.574C105.555 106.574 116.288 100.466 122.529 95.4964C124.404 91.5875 120.438 89.3033 119.149 88.6848C110.958 88.458 99.5978 88.6835 92.9992 91.1413Z" fill="#FA8C7A"/>
<path d="M71.4919 87.8058L71.1254 87.472C68.7003 87.3989 66.3437 87.4623 64.0124 87.5694C59.435 89.6112 59.676 93.1197 60.4721 95.4209C61.2202 96.0878 62.0368 96.7692 62.9194 97.4488C63.5449 90.0942 71.4919 87.8058 71.4919 87.8058Z" fill="#872B06"/>
<path d="M119.149 88.6847C117.047 88.6267 114.735 88.5989 112.35 88.6309C116.527 90.6612 121.806 93.6855 121.849 96.026C122.081 95.8476 122.309 95.6711 122.528 95.4958C124.404 91.5869 120.438 89.3033 119.149 88.6847Z" fill="#672004"/>
<path d="M53.9666 88.0065C53.9666 88.0065 65.1077 106.573 90.4941 106.573C115.881 106.573 128.974 89.2158 128.974 89.2158C128.974 89.2158 104.167 86.9817 92.9985 91.1421C91.673 91.6354 90.2154 91.5901 88.8983 91.0731C75.0911 85.6497 64.9581 87.8632 53.9666 88.0065Z" stroke="#241200" stroke-width="2" stroke-linejoin="round"/>
<path d="M78.9266 46.1172L149.82 23.734L128.322 63.5499L128.281 63.5991C128.105 63.8049 123.89 68.6789 116.036 71.5806C108.849 74.2357 97.1659 75.6219 82.2291 67.2368C80.2922 68.2977 78.4179 69.3386 76.6097 70.3423C62.9187 77.9447 53.0273 83.4365 47.8915 79.7317C47.5987 79.4949 21.2357 57.9118 12.2602 37.9824L11.8123 36.9882L78.9266 46.1172Z" fill="#241200"/>
<path d="M148.587 24.7552L127.824 63.2087C127.824 63.2087 111.035 82.9139 82.2353 66.5483C65.737 75.5691 53.7521 83.2173 48.243 79.2423C48.243 79.2423 21.8279 57.7634 12.807 37.733L78.9761 46.7337L148.587 24.7552ZM151.054 22.7128L148.23 23.6041L78.8762 45.5016L12.9731 36.5372L10.8157 36.2437L11.7116 38.2328C20.7449 58.2917 46.3964 79.2962 47.4837 80.1806L47.5107 80.2027L47.5389 80.2225C52.9826 84.1502 63.0146 78.5799 76.8989 70.8704C78.6192 69.9153 80.3925 68.9302 82.2237 67.9265C97.2219 76.2441 108.982 74.8289 116.241 72.1475C124.242 69.1912 128.557 64.2012 128.737 63.9898L128.82 63.8925L128.881 63.78L149.643 25.3266L151.054 22.7128Z" fill="#241200"/>
<path d="M129.903 59.4591C126.101 54.1267 118.745 43.8231 113.115 35.9913L106.942 37.9407L129.529 60.1507L129.903 59.4591Z" fill="#FDFDFD"/>
<path d="M121.906 68.1227C115.602 54.3079 108.306 43.8249 104.512 38.7035L89.4808 43.4515L113.64 71.8247C116.953 70.8616 119.72 69.4883 121.906 68.1227Z" fill="#FDFDFD"/>
<path d="M62.5488 77.1232C65.7288 75.6335 69.2925 73.713 73.2051 71.5515C67.638 59.9872 60.8547 50.3762 55.2137 43.432L33.4825 40.4764C42.7366 52.9216 56.9545 70.3251 62.5488 77.1232Z" fill="#FDFDFD"/>
<path d="M40.5903 97.3588C40.5903 97.3588 40.837 97.5009 40.8435 97.6582C41.0673 99.3649 44.0702 116.474 26.8785 129.736C26.8785 129.736 26.8252 129.66 26.7245 129.513C-4.38513 131.33 -12.1432 59.8498 33.1398 55.2572C33.1398 55.2572 36.0967 54.8567 37.0533 57.3017C37.709 58.9644 31.9013 64.0559 31.9013 64.0559L36.8319 63.2092C38.5398 62.6937 40.806 65.0308 39.8415 66.5621L34.855 71.3431C30.9995 75.5065 32.8117 81.4271 33.3325 86.1509C34.5237 90.651 36.4818 92.8096 40.5903 97.3588Z" fill="#85C9D4"/>
<path d="M40.5903 97.3588C40.5903 97.3588 40.837 97.5009 40.8435 97.6582C41.0673 99.3649 44.0702 116.474 26.8785 129.736C26.8785 129.736 26.8252 129.66 26.7245 129.513C-4.38513 131.33 -12.1432 59.8498 33.1398 55.2572C33.1398 55.2572 36.0967 54.8567 37.0533 57.3017C37.709 58.9644 31.9013 64.0559 31.9013 64.0559L36.8319 63.2092C38.5397 62.6937 40.8059 65.0308 39.8414 66.5621L34.855 71.3431C30.9995 75.5065 32.8117 81.4271 33.3325 86.1509C34.5237 90.651 36.4818 92.8096 40.5903 97.3588Z" stroke="#241200" stroke-width="2" stroke-linecap="round" stroke-linejoin="round"/>
</svg>
