<svg width="20" height="20" viewBox="0 0 20 20" fill="none" xmlns="http://www.w3.org/2000/svg">
<path fill-rule="evenodd" clip-rule="evenodd" d="M17.9381 11C17.446 14.9463 14.0796 18 10 18C5.92038 18 2.55399 14.9463 2.06189 11H6.95935C7.37926 12.2776 8.58191 13.2 10 13.2C11.4181 13.2 12.6207 12.2776 13.0407 11H17.9381ZM17.9381 8.99999H13.0406C12.6207 7.72242 11.4181 6.8 10 6.8C8.58192 6.8 7.37928 7.72242 6.95936 8.99999H2.0619C2.554 5.05368 5.92039 2 10 2C14.0796 2 17.446 5.05368 17.9381 8.99999ZM2 10L2.00001 9.98883V10.0112L2 10ZM20 10C20 15.5229 15.5229 20 10 20C4.47715 20 0 15.5229 0 10C0 4.47715 4.47715 0 10 0C15.5229 0 20 4.47715 20 10ZM11.2 10C11.2 10.6627 10.6627 11.2 10 11.2C9.33726 11.2 8.8 10.6627 8.8 10C8.8 9.33726 9.33726 8.8 10 8.8C10.6627 8.8 11.2 9.33726 11.2 10Z" fill="#6F767E"/>
</svg>
