<svg width="24" height="24" viewBox="0 0 24 24" fill="none" xmlns="http://www.w3.org/2000/svg">
<g clip-path="url(#clip0_11_857)">
<path fill-rule="evenodd" clip-rule="evenodd" d="M10.6478 17.7663C11.1937 17.2203 12.0051 17.0374 12.7325 17.2963C14.4993 17.9251 16.5414 17.5296 17.9496 16.1213C19.9022 14.1687 19.9022 11.0029 17.9496 9.05024C15.997 7.09762 12.8311 7.09762 10.8785 9.05024C9.47028 10.4585 9.07479 12.5005 9.70356 14.2673C9.96243 14.9947 9.77949 15.8061 9.23354 16.3521L8.0501 17.5355C7.65958 17.926 7.65958 18.5592 8.0501 18.9497C8.44063 19.3403 9.07379 19.3403 9.46432 18.9497L10.6478 17.7663ZM12.062 19.1805L10.8785 20.3639C9.70696 21.5355 7.80746 21.5355 6.63589 20.3639C5.46432 19.1924 5.46431 17.2929 6.63589 16.1213L7.81932 14.9379C6.94146 12.4712 7.48979 9.61055 9.46432 7.63603C12.198 4.90236 16.6301 4.90236 19.3638 7.63603C22.0975 10.3697 22.0975 14.8019 19.3638 17.5355C17.3893 19.51 14.5286 20.0584 12.062 19.1805Z" fill="#6F767E"/>
<path fill-rule="evenodd" clip-rule="evenodd" d="M5 6C5.55228 6 6 5.55228 6 5C6 4.44772 5.55228 4 5 4C4.44772 4 4 4.44772 4 5C4 5.55228 4.44772 6 5 6ZM5 8C6.65685 8 8 6.65685 8 5C8 3.34315 6.65685 2 5 2C3.34315 2 2 3.34315 2 5C2 6.65685 3.34315 8 5 8Z" fill="#6F767E"/>
</g>
<defs>
<clipPath id="clip0_11_857">
<rect width="24" height="24" fill="white"/>
</clipPath>
</defs>
</svg>
